PathFileType	4	(X/Y/Z)	/Users/itak/Documents/Research/Walk-IL/dataset/trc/00234_00009.trc
DataRate	CameraRate	NumFrames	NumMarkers	Units	OrigDataRate	OrigDataStartFrame	OrigNumFrames
100.000000	100.000000	4	53	mm	100.000000	390	780
Frame#	Time	RPSI			LPSI			L3			STRN			T10			C7			CLAV			RBAK			LBAK			LSHO			LUPA			LAEL			LAOL			LWTS			LWPS			LFRA			LIFD			LHPS			LHTS			RSHO			RUPA			RAEL			RAOL			RWTS			RWPS			RFRA			RIFD			RHTS			RHPS			RBHD			LFHD			RFHD			LBHD			LHIP			RHIP			RASI			LASI			LKNE			LTHI			LANK			LTIP			LTOE			LMT1			LMT5			LHEE			RKNE			RTHI			RANK			RTIP			RTOE			RMT1			RMT5			RHEE			
		X1	Y1	Z1	X2	Y2	Z2	X3	Y3	Z3	X4	Y4	Z4	X5	Y5	Z5	X6	Y6	Z6	X7	Y7	Z7	X8	Y8	Z8	X9	Y9	Z9	X10	Y10	Z10	X11	Y11	Z11	X12	Y12	Z12	X13	Y13	Z13	X14	Y14	Z14	X15	Y15	Z15	X16	Y16	Z16	X17	Y17	Z17	X18	Y18	Z18	X19	Y19	Z19	X20	Y20	Z20	X21	Y21	Z21	X22	Y22	Z22	X23	Y23	Z23	X24	Y24	Z24	X25	Y25	Z25	X26	Y26	Z26	X27	Y27	Z27	X28	Y28	Z28	X29	Y29	Z29	X30	Y30	Z30	X31	Y31	Z31	X32	Y32	Z32	X33	Y33	Z33	X34	Y34	Z34	X35	Y35	Z35	X36	Y36	Z36	X37	Y37	Z37	X38	Y38	Z38	X39	Y39	Z39	X40	Y40	Z40	X41	Y41	Z41	X42	Y42	Z42	X43	Y43	Z43	X44	Y44	Z44	X45	Y45	Z45	X46	Y46	Z46	X47	Y47	Z47	X48	Y48	Z48	X49	Y49	Z49	X50	Y50	Z50	X51	Y51	Z51	X52	Y52	Z52	X53	Y53	Z53	

391	3.9	594.0861206054688	1020.586303710938	-544.0399169921875	530.5497436523438	1024.619506835938	-442.6544494628906	554.9241333007812	1112.827880859375	-476.1406555175781	338.7051391601562	1296.775634765625	-603.0897827148438	559.3411865234375	1240.266479492188	-476.6750183105469	499.4955749511719	1500.468383789062	-503.1179504394531	359.7037658691406	1414.40087890625	-589.7189331054688	606.1583251953125	1364.873168945312	-527.9227294921875	460.9814758300781	1460.917358398438	-397.4091796875	355.7863464355469	1458.94189453125	-396.7661743164062	336.3373413085938	1340.521728515625	-318.9185791015625	294.3208312988281	1132.659423828125	-309.9876708984375	377.1764831542969	1106.514892578125	-314.0357666015625	209.0699920654297	932.28466796875	-444.4565124511719	183.3706665039062	905.8427124023438	-368.6687622070312	250.1557312011719	1033.140258789062	-326.8667907714844	167.8246765136719	745.2467651367188	-475.2420654296875	155.3305358886719	825.223876953125	-397.5126037597656	151.4088134765625	842.2617797851562	-463.4557189941406	536.6099243164062	1462.443237304688	-677.9505615234375	587.4384155273438	1398.90869140625	-727.0313110351562	627.310791015625	1121.158203125	-764.5631713867188	615.774658203125	1109.38427734375	-669.9844970703125	479.8531188964844	912.8595581054688	-802.5196533203125	557.4556884765625	898.0303955078125	-836.1146850585938	609.0494995117188	1054.474243164062	-792.3947143554688	458.5251159667969	720.3680419921875	-812.5875244140625	448.3117370605469	794.5738525390625	-840.0745239257812	518.5830688476562	792.4767456054688	-859.8137817382812	460.3880615234375	1662.995239257812	-609.5421752929688	243.4692687988281	1674.964965820312	-544.432861328125	257.22509765625	1670.229125976562	-643.4696655273438	397.3763732910156	1667.663696289062	-483.7752380371094	369.7605895996094	961.9996948242188	-379.5701293945312	565.6669921875	990.4202880859375	-687.177734375	465.1391296386719	1035.419311523438	-705.1224975585938	310.8358154296875	1010.606811523438	-470.977783203125	345.2842407226562	489.0889587402344	-525.9010009765625	338.7142639160156	627.133056640625	-471.9204406738281	487.8274841308594	30.79357719421387	-541.5206298828125	412.5766296386719	262.6728210449219	-525.3366088867188	316.7140502929688	38.79200744628906	-684.7091674804688	398.0682678222656	32.80849838256836	-693.7426147460938	365.4375	34.77964401245117	-581.85498046875	565.5415649414062	37.59934616088867	-561.82470703125	446.8311767578125	514.5697021484375	-778.6591186523438	491.956787109375	781.258056640625	-756.03076171875	745.2620239257812	167.1518096923828	-594.9024047851562	478.6072082519531	405.6432495117188	-750.1032104492188	584.6085815429688	56.9141960144043	-671.9210205078125	594.7281494140625	79.83366394042969	-607.6019897460938	695.5648193359375	99.87889099121094	-668.3350219726562	746.360107421875	204.0487365722656	-519.6539916992188	
392	3.91	589.026123046875	1020.892395019531	-548.8986206054688	526.7218627929688	1025.054809570312	-446.6419372558594	550.3770141601562	1113.084838867188	-480.1929321289062	333.0666198730469	1297.18017578125	-604.994384765625	554.7061767578125	1240.645385742188	-480.2554931640625	494.6850280761719	1500.826904296875	-506.3875732421875	354.20361328125	1414.822631835938	-591.8323974609375	601.0335693359375	1365.126342773438	-532.0457153320312	456.9249877929688	1461.385498046875	-400.2869262695312	351.778564453125	1459.541748046875	-399.0603942871094	331.7019653320312	1341.2216796875	-321.5425109863281	287.3919372558594	1133.9091796875	-313.11474609375	369.8566589355469	1106.619506835938	-317.2538757324219	199.2976226806641	936.2060546875	-449.4921875	172.6814880371094	909.6507568359375	-374.0050964355469	241.6006622314453	1035.295532226562	-330.9176330566406	154.2349090576172	750.2667236328125	-481.9580993652344	143.1905364990234	829.8543090820312	-403.5975341796875	139.6514587402344	847.4793701171875	-469.4119262695312	530.38427734375	1462.766723632812	-681.4994506835938	580.8167114257812	1399.264404296875	-730.9922485351562	620.5357055664062	1121.563354492188	-768.8704833984375	609.6155395507812	1109.767456054688	-674.2493286132812	473.294189453125	912.9126586914062	-805.879150390625	550.6456909179688	898.25048828125	-839.959228515625	602.166015625	1054.798706054688	-796.5385131835938	452.9468383789062	720.3216552734375	-815.4969482421875	441.8070983886719	794.437255859375	-843.145263671875	511.9905395507812	792.6181030273438	-863.3843383789062	454.5005798339844	1663.406372070312	-612.7451171875	238.2155303955078	1675.23046875	-545.6703491210938	251.0157470703125	1670.2939453125	-644.8695068359375	392.6015930175781	1668.228881835938	-486.4198913574219	366.8820495605469	962.34033203125	-381.0876159667969	558.4155883789062	991.057373046875	-691.611572265625	457.6572875976562	1035.868408203125	-707.9420166015625	306.45166015625	1010.898315429688	-471.7114868164062	344.7215576171875	488.7910461425781	-525.2368774414062	337.5464782714844	627.1018676757812	-472.0203247070312	487.8344116210938	30.78711128234863	-541.5349731445312	412.4427795410156	262.6595764160156	-524.9718017578125	316.7267456054688	38.79655456542969	-684.6726684570312	398.0700378417969	32.84228134155273	-693.7136840820312	365.4063415527344	34.75303649902344	-581.7865600585938	565.6429443359375	37.6889533996582	-561.771484375	432.193603515625	516.9700317382812	-784.05712890625	481.8181457519531	782.8868408203125	-760.782470703125	728.2493286132812	160.2711639404297	-615.64794921875	462.8676147460938	407.3151245117188	-758.212646484375	563.145263671875	55.77212905883789	-691.5054321289062	575.4796142578125	76.60891723632812	-626.8201293945312	675.1424560546875	96.10509490966797	-689.6668090820312	732.247802734375	194.7631225585938	-539.4869995117188	
393	3.92	583.90673828125	1021.195068359375	-553.7306518554688	522.8668823242188	1025.48291015625	-450.6426086425781	545.7960205078125	1113.337890625	-484.2827453613281	327.3702697753906	1297.542724609375	-606.8497924804688	550.1469116210938	1240.997924804688	-483.8733520507812	489.8516235351562	1501.16650390625	-509.6685485839844	348.6768493652344	1415.208618164062	-593.8932495117188	595.8895874023438	1365.366577148438	-536.2112426757812	452.8869323730469	1461.825439453125	-403.1700439453125	347.7994079589844	1460.11328125	-401.3150329589844	327.317138671875	1341.877197265625	-324.0103149414062	280.5985412597656	1135.162841796875	-316.0778198242188	362.6878662109375	1106.766967773438	-320.3084716796875	189.7694702148438	940.1514892578125	-454.2913818359375	162.2351684570312	913.4768676757812	-379.1058959960938	233.2348937988281	1037.45849609375	-334.7587890625	140.8527069091797	755.4404907226562	-488.5241394042969	131.3134918212891	834.5354614257812	-409.4559631347656	128.1179962158203	852.804443359375	-475.1207275390625	524.0718994140625	1463.063110351562	-685.0567626953125	574.088623046875	1399.592041015625	-734.9713134765625	613.68994140625	1121.948486328125	-773.22021484375	603.4227905273438	1110.122802734375	-678.5489501953125	466.7603454589844	912.8843383789062	-809.222900390625	543.8389892578125	898.4288940429688	-843.811767578125	595.2305908203125	1055.11083984375	-800.7191162109375	447.6683654785156	720.1622924804688	-818.39697265625	435.3305053710938	794.2330932617188	-846.2055053710938	505.4258728027344	792.7050170898438	-866.953369140625	448.602783203125	1663.780517578125	-615.8818359375	232.9693298339844	1675.507568359375	-546.8462524414062	244.810302734375	1670.388549804688	-646.196533203125	387.8062438964844	1668.741455078125	-489.0181579589844	364.0558166503906	962.6506958007812	-382.633544921875	551.1776733398438	991.6758422851562	-696.0525512695312	450.2000122070312	1036.291625976562	-710.7417602539062	302.1419982910156	1011.146728515625	-472.4598693847656	344.2085571289062	488.5057678222656	-524.5447998046875	336.4394226074219	627.0833129882812	-472.0916137695312	487.8927307128906	30.77613830566406	-541.5050048828125	412.2946166992188	262.6600036621094	-524.613037109375	316.7435607910156	38.80072402954102	-684.6373901367188	398.0823974609375	32.87470245361328	-693.6826782226562	365.3242797851562	34.74860763549805	-581.7272338867188	565.7129516601562	37.80224609375	-561.6978759765625	417.7110900878906	519.3318481445312	-788.8324584960938	471.7310485839844	784.4617309570312	-765.3267211914062	710.1384887695312	152.8679809570312	-636.396484375	447.0986938476562	408.9179992675781	-765.7474365234375	540.4619750976562	54.77928924560547	-710.957275390625	555.02734375	73.36439514160156	-646.021728515625	653.4486694335938	92.20407867431641	-710.8977661132812	717.0972290039062	184.7137145996094	-559.391357421875	
394	3.93	578.7193603515625	1021.490844726562	-558.52685546875	518.9803466796875	1025.901733398438	-454.648681640625	541.1805419921875	1113.5869140625	-488.3950805664062	321.6034545898438	1297.863037109375	-608.6627807617188	545.6430053710938	1241.324462890625	-487.5353698730469	484.9826354980469	1501.483520507812	-512.9661254882812	343.1147766113281	1415.553466796875	-595.9154663085938	590.7149047851562	1365.598876953125	-540.420654296875	448.8545227050781	1462.236083984375	-406.0660095214844	343.8360595703125	1460.651611328125	-403.5374145507812	323.1914367675781	1342.490844726562	-326.3125915527344	273.95166015625	1136.410888671875	-318.8814086914062	355.6768493652344	1106.947265625	-323.2011108398438	180.4851379394531	944.1082153320312	-458.8492431640625	152.0475158691406	917.2987670898438	-383.9638061523438	225.0740051269531	1039.614624023438	-338.3882141113281	127.7357177734375	760.7389526367188	-494.9228820800781	119.7282867431641	839.239501953125	-415.0774536132812	116.8313369750977	858.2100830078125	-480.5744018554688	517.66357421875	1463.331787109375	-688.6256103515625	567.2462768554688	1399.89111328125	-738.9693603515625	606.772216796875	1122.316528320312	-777.6048583984375	597.1931762695312	1110.450805664062	-682.8734741210938	460.2443237304688	912.7775268554688	-812.5424194335938	537.0320434570312	898.5712890625	-847.6696166992188	588.243408203125	1055.414672851562	-804.9296875	442.7542114257812	719.8854370117188	-821.2942504882812	428.8813171386719	793.9689331054688	-849.256103515625	498.876220703125	792.743408203125	-870.5234375	442.6915588378906	1664.113525390625	-618.9549560546875	227.7229309082031	1675.788940429688	-547.9624633789062	238.6041717529297	1670.515991210938	-647.452880859375	382.9847106933594	1669.194091796875	-491.5740661621094	361.2579956054688	962.9254760742188	-384.221923828125	543.9483032226562	992.2800903320312	-700.49462890625	442.7659301757812	1036.6953125	-713.5126953125	297.9010925292969	1011.347961425781	-473.2343139648438	343.7137145996094	488.2248840332031	-523.8566284179688	335.3533020019531	627.066162109375	-472.166015625	487.9920959472656	30.76363182067871	-541.4397583007812	412.1251525878906	262.6686706542969	-524.2705688476562	316.76318359375	38.80172729492188	-684.6071166992188	398.1052551269531	32.90457153320312	-693.6500854492188	365.2018127441406	34.76188659667969	-581.6762084960938	565.7416381835938	37.9362678527832	-561.6182861328125	403.4150695800781	521.63916015625	-793.0006713867188	461.7128295898438	785.971923828125	-769.6592407226562	690.8980712890625	145.0943756103516	-657.0363159179688	431.3156433105469	410.4385070800781	-772.7113037109375	516.6287841796875	54.00534820556641	-730.1087036132812	533.4115600585938	70.17939758300781	-665.0360717773438	630.5258178710938	88.30431365966797	-731.8907470703125	700.8310546875	174.0847930908203	-579.2791137695312	
